<?xml version="1.0" encoding="UTF-8"?>
<svg viewBox="0 0 426.72858 746.25781" xmlns="http://www.w3.org/2000/svg">
 <g transform="translate(579.31 268.72)">
  <path d="m-367.54-263.72c-30.791 24.506-267.46 229.9-88.188 623.22h179.25c179.27-393.32-57.396-598.68-88.188-623.19l-2.875-0.03125z" fill="#ececec" fill-rule="evenodd" stroke="#000" stroke-width="10"/>
  <path d="m-360.12-9.075c-37.293 0-67.625 30.363-67.625 67.656s30.332 67.625 67.625 67.625 67.656-30.332 67.656-67.625-30.363-67.656-67.656-67.656zm0 8c32.965 0 59.656 26.691 59.656 59.656s-26.691 59.625-59.656 59.625-59.625-26.66-59.625-59.625 26.66-59.656 59.625-59.656z" fill="#ccc"/>
  <path d="m-486.89-102.24 43.437-79.802 60.609-68.69 17.173-13.132 64.65 67.68 50.508 81.822 4.0406 17.173-241.43-1.0102" fill="#f00" fill-rule="evenodd" stroke="#000"/>
  <path d="m-511.14 201.81s-107.08-1.3336-42.426 270.72c0 0 6.0609-227.16 62.629-199.15" fill="#f00" fill-rule="evenodd" stroke="#000" stroke-width="10"/>
  <path d="m-220.76 201.81s107.08-1.3336 42.426 270.72c0 0-6.0609-227.16-62.629-199.15" fill="#f00" fill-rule="evenodd" stroke="#000" stroke-width="10"/>
  <path d="m-481.84 303.84 26.264 55.558 179.81-1.0102 21.213-54.548h-227.28z" fill="#b3b3b3" fill-rule="evenodd" stroke="#000"/>
  <path d="m-195.97 229.09-20.203 50.508-12.122-10.102-14.142 6.0609 19.193-75.761 34.345 17.173s59.599 41.416 13.132 247.49c27.274-213.14-21.213-235.37-20.203-235.37z" fill="#d20000" fill-rule="evenodd"/>
  <path d="m-556.59 469.5s-10.061-220.37 58.589-221.22c7.5756-0.09431 7.0711 24.244 7.0711 24.244l-27.274 6.0609-21.213 66.67-17.173 124.25z" fill="#d20000" fill-rule="evenodd"/>
  <path d="m-320.44 303.84c4.0529 12.21 6.448 29.248 5.2812 53.531 0.8622 0.30381 1.7754 0.73001 2.7188 1.2188l36.656-0.21875 17.094-43.938c-0.68954-3.7542-1.4863-7.1048-2.25-10.594h-59.5z" fill="#999" fill-rule="evenodd"/>
  <path d="m-346.47 197.2c-6.8185-0.50507-11.125 0.5625-11.125 0.5625l-5.0625 77.781s24.335-4.8054 35.812 28.312h59.625c-19.366-90.309-59.667-105.21-79.25-106.66z" fill="#ccc" fill-rule="evenodd"/>
  <path d="m-479 308.36 20 50 28 2-8-57-40 5z" fill="#ccc" fill-rule="evenodd"/>
  <path d="m-367.54-263.72c-30.791 24.506-267.46 229.9-88.188 623.22h179.25c179.27-393.32-57.396-598.68-88.188-623.19l-2.875-0.03125z" fill="none" stroke="#000" stroke-width="10"/>
  <path d="m-486.89-100.22h237.39" fill="none" stroke="#000" stroke-width="10"/>
  <path transform="translate(-69.118 -17.919)" d="m-233.35 70.494a63.64 63.64 0 1 1 -127.28 0 63.64 63.64 0 1 1 127.28 0z" fill="#b3b3b3" stroke="#000" stroke-linecap="round" stroke-width="8"/>
  <path transform="matrix(.65079 0 0 .65079 -172.83 6.6981)" d="m-233.35 70.494a63.64 63.64 0 1 1 -127.28 0 63.64 63.64 0 1 1 127.28 0z" fill="#80e5ff" stroke="#000" stroke-linecap="round" stroke-width="12.293"/>
  <path d="m-478.81 304.85h224.25" fill="none" stroke="#000" stroke-width="10"/>
  <path d="m-375.19 199.79h18.183v272.74h-18.183v-272.74z" fill="#f00" stroke="#000" stroke-linecap="round" stroke-width="10"/>
  <path d="m-264.66 291.72s80.812-185.87 16.162-364.67c3.0305 317.19-83.843 364.67-83.843 364.67h67.68z" fill="#ccc" fill-rule="evenodd"/>
  <path transform="matrix(.70389,.7103,-.70389,.7103,0,0)" d="m-240.61 254.63h34.47v83.714h-34.47z" fill="#fff"/>
  <path transform="matrix(.65079 0 0 .65079 -172.83 6.6981)" d="m-233.35 70.494a63.64 63.64 0 1 1 -127.28 0 63.64 63.64 0 1 1 127.28 0z" fill="none" stroke="#000" stroke-linecap="round" stroke-width="12.293"/>
  <path d="m-273.75-115.37s-31.315-81.822-90.914-125.26c54.548 105.06 26.264 125.26 26.264 125.26l64.65-1e-5z" fill="#d20000" fill-rule="evenodd"/>
  <path d="m-220.76 201.81s107.08-1.3336 42.426 270.72c0 0-6.0609-227.16-62.629-199.15" fill="none" stroke="#000" stroke-width="10"/>
  <path d="m-511.14 201.81s-107.08-1.3336-42.426 270.72c0 0 6.0609-227.16 62.629-199.15" fill="none" stroke="#000" stroke-width="10"/>
  <path d="m-472.75-118.4s53.538-104.05 97.985-131.32-96.975 133.34-97.985 131.32z" fill="#fff" fill-rule="evenodd"/>
  <path d="m-504.29 158.08c-3.1638-1.7567-22.724-145.96 25.714-235.71 29.867-24.039 70.502-11.397 68.571-1.4286-16.727 86.351-75.469 247.59-94.286 237.14z" fill="#fff" fill-rule="evenodd"/>
 </g>
</svg>
